<svg xmlns="http://www.w3.org/2000/svg" viewBox="0 0 261.27 68.59"><defs><style>.cls-1{fill:red;}</style></defs><g id="Layer_2" data-name="Layer 2"><g id="Layer_1-2" data-name="Layer 1"><path d="M165.05,64.72a2.94,2.94,0,0,1-.19,1.09,2.61,2.61,0,0,1-.53.84,2.32,2.32,0,0,1-.82.55,3,3,0,0,1-1,.19,3,3,0,0,1-1.13-.2,2.3,2.3,0,0,1-.81-.54,2.35,2.35,0,0,1-.48-.81,3.25,3.25,0,0,1,0-2.13,2.32,2.32,0,0,1,.55-.84,2.41,2.41,0,0,1,.83-.53,2.83,2.83,0,0,1,1-.19,3,3,0,0,1,1.07.19,2.25,2.25,0,0,1,.82.52,2.17,2.17,0,0,1,.52.8A3.23,3.23,0,0,1,165.05,64.72Zm-.63,0a1.83,1.83,0,0,0-1.95-2,1.89,1.89,0,0,0-1.39.54,2,2,0,0,0-.55,1.53,2.05,2.05,0,0,0,.5,1.46,2.17,2.17,0,0,0,2.88,0A2.1,2.1,0,0,0,164.42,64.76Zm-.74,1.32h-.58L162.5,65h-.37v1.06h-.54V63.37h1a.84.84,0,0,1,.71.24.83.83,0,0,1,.18.53.7.7,0,0,1-.48.72Zm-1.36-1.49a1,1,0,0,0,.42-.07c.12,0,.17-.16.17-.35s0-.25-.13-.29a1,1,0,0,0-.38-.07h-.27v.78Z"/><path class="cls-1" d="M106.68,9.86a13,13,0,0,0-4.48-5.2,17.72,17.72,0,0,0-6.69-2.59,47.06,47.06,0,0,0-8.34-.69H59.44L56.82,13.55H83.31c2.62,0,4.62.58,6,1.66A5.76,5.76,0,0,1,91.38,20a12.31,12.31,0,0,1-.69,4,10.46,10.46,0,0,1-2.18,3.67,11.6,11.6,0,0,1-3.82,2.71,13.39,13.39,0,0,1-5.6,1.06h-.5c-2.76,0-4.84-.55-6.23-1.67A5.74,5.74,0,0,1,70.26,25,12.22,12.22,0,0,1,71,21c.08-.24.18-.46.27-.69H56.38l-9.79,46.9H63.75l5-24h6.09c3.08,0,5.27.73,6.59,2.21s2,3.69,2,6.64c0,2.21-.54,15.12-.54,15.12H99.67c.18-7.21.31-16.88.31-19.27a15,15,0,0,0-1.52-7.43A7.85,7.85,0,0,0,93.25,37v-.18c5.16-.75,9-2.76,11.4-6a20.21,20.21,0,0,0,3.63-12.31A19.94,19.94,0,0,0,106.68,9.86Z"/><polygon points="43.66 66.6 46.61 52.46 20.19 52.46 30.89 1.38 13.74 1.38 0 67.21 43.53 67.21 43.66 66.6"/><path d="M121.37,22.63a20.25,20.25,0,0,1,6.13-6.13,16.34,16.34,0,0,1,9-2.39,14.22,14.22,0,0,1,4.33.64,10.22,10.22,0,0,1,3.51,1.89,9.41,9.41,0,0,1,2.35,3,8.55,8.55,0,0,1,.78,4.11h16.23A25.92,25.92,0,0,0,162,13.18a18.38,18.38,0,0,0-5.4-7.42A23.48,23.48,0,0,0,148,1.43,41.52,41.52,0,0,0,136.76,0,37.5,37.5,0,0,0,122,2.63a33,33,0,0,0-10.24,6.64c-.51.5-1,1-1.47,1.55a25.56,25.56,0,0,1,1,7.62,23.23,23.23,0,0,1-4.23,14.1,17,17,0,0,1-6.75,5.35,9.58,9.58,0,0,1,.76,1.12c1.29,2.24,1.92,5.16,1.92,8.93,0,1.21,0,4.25-.09,7.91a21.66,21.66,0,0,0,13.45,11.36,32.85,32.85,0,0,0,9.36,1.38,41.47,41.47,0,0,0,6.87-.5,22.27,22.27,0,0,0,5.12-1.48,14.54,14.54,0,0,0,3.92-2.49l.07-.07L141,67.21h14.55l7.66-36H135.84l-2.67,12.73h12.08q-1.94,5.89-5.49,8.25c-2.36,1.56-5.58,2.35-9.63,2.35q-6.64,0-10-3.78t-3.36-10.79a37.94,37.94,0,0,1,1.11-9A26.82,26.82,0,0,1,121.37,22.63Z"/><path class="cls-1" d="M187.55,17.2h4.59v2.35h-7.48V6.47h2.89Z"/><path class="cls-1" d="M197.7,19.76A4.94,4.94,0,0,1,193.53,18a8,8,0,0,1-1.35-4.94,9.23,9.23,0,0,1,.41-2.9A6.16,6.16,0,0,1,193.75,8a4.85,4.85,0,0,1,1.81-1.32A6,6,0,0,1,198,6.24,4.79,4.79,0,0,1,202,8a7.83,7.83,0,0,1,1.34,4.87A8,8,0,0,1,201.94,18,5,5,0,0,1,197.7,19.76Zm.09-2.26a2.06,2.06,0,0,0,1.92-1.08,7.28,7.28,0,0,0,.63-3.51,6.9,6.9,0,0,0-.6-3.32,2,2,0,0,0-1.86-1,2.44,2.44,0,0,0-1.11.25,2.08,2.08,0,0,0-.84.78,4.45,4.45,0,0,0-.54,1.37,9.76,9.76,0,0,0-.18,2,7.17,7.17,0,0,0,.62,3.43A2.1,2.1,0,0,0,197.79,17.5Z"/><path class="cls-1" d="M211.85,19.55l-4.53-8.75v8.75h-2.67V6.47H208l4.34,8.88V6.47h2.68V19.55Z"/><path class="cls-1" d="M217.05,19.55V6.47h3.21a11.15,11.15,0,0,1,3.16.4,5.25,5.25,0,0,1,2.13,1.2,4.58,4.58,0,0,1,1.19,2,8.87,8.87,0,0,1,.38,2.71,10.63,10.63,0,0,1-.38,3,5,5,0,0,1-1.2,2.12,5.18,5.18,0,0,1-2.14,1.27,10.15,10.15,0,0,1-3.18.43Zm3.58-2.35a5,5,0,0,0,1.52-.21,2.51,2.51,0,0,0,1.1-.73,3.25,3.25,0,0,0,.67-1.31,7.82,7.82,0,0,0,.22-2,7.61,7.61,0,0,0-.21-1.94,3.12,3.12,0,0,0-.64-1.26A2.45,2.45,0,0,0,222.2,9a5.19,5.19,0,0,0-1.57-.21h-.69V17.2Z"/><path class="cls-1" d="M233.25,19.76A4.93,4.93,0,0,1,229.08,18a7.89,7.89,0,0,1-1.36-4.94,9.53,9.53,0,0,1,.41-2.9A6.32,6.32,0,0,1,229.29,8a4.88,4.88,0,0,1,1.82-1.32,5.94,5.94,0,0,1,2.4-.46A4.82,4.82,0,0,1,237.58,8a7.83,7.83,0,0,1,1.33,4.87A8,8,0,0,1,237.49,18,5.06,5.06,0,0,1,233.25,19.76Zm.08-2.26a2.08,2.08,0,0,0,1.93-1.08,7.42,7.42,0,0,0,.62-3.51,7,7,0,0,0-.59-3.32,2,2,0,0,0-1.87-1,2.37,2.37,0,0,0-1.1.25,2.1,2.1,0,0,0-.85.78,4.21,4.21,0,0,0-.53,1.37,9.06,9.06,0,0,0-.19,2,7.16,7.16,0,0,0,.63,3.43A2.07,2.07,0,0,0,233.33,17.5Z"/><path class="cls-1" d="M247.39,19.55l-4.52-8.75v8.75h-2.68V6.47h3.39l4.35,8.88V6.47h2.67V19.55Z"/><path class="cls-1" d="M187.53,40.93h-2.87V27.85h4.9a6.52,6.52,0,0,1,2,.28,3.55,3.55,0,0,1,1.35.77,3.09,3.09,0,0,1,.75,1.19,4.54,4.54,0,0,1,.24,1.5,7.82,7.82,0,0,1-.08,1.07,3.67,3.67,0,0,1-.35,1.06,3.33,3.33,0,0,1-.72.94,3.44,3.44,0,0,1-1.23.69l2.65,5.58h-3.08l-2.39-5.22h-1.19Zm1.14-7.38a5.82,5.82,0,0,0,1-.07,1.8,1.8,0,0,0,.74-.26,1.24,1.24,0,0,0,.46-.55,2,2,0,0,0,.16-.88,1.62,1.62,0,0,0-.46-1.24,2.24,2.24,0,0,0-1.55-.43h-1.46v3.43Z"/><path class="cls-1" d="M202.53,35.39h-4.29v3.19h5.13v2.35h-8V27.85h7.71v2.34h-4.82v2.92h4.29Z"/><path class="cls-1" d="M211.78,35.73h-4.21v5.2h-2.88V27.85h7.71v2.34h-4.83v3.28h4.21Z"/><path class="cls-1" d="M220.67,35.39h-4.3v3.19h5.13v2.35h-8V27.85h7.71v2.34h-4.83v2.92h4.3Z"/><path class="cls-1" d="M225.69,40.93h-2.87V27.85h4.9a6.52,6.52,0,0,1,2,.28,3.4,3.4,0,0,1,1.35.77,3.11,3.11,0,0,1,.76,1.19,4.54,4.54,0,0,1,.24,1.5,6.53,6.53,0,0,1-.09,1.07,3.67,3.67,0,0,1-.35,1.06,3.33,3.33,0,0,1-.72.94,3.44,3.44,0,0,1-1.23.69l2.66,5.58h-3.09l-2.38-5.22h-1.2Zm1.14-7.38a5.74,5.74,0,0,0,1-.07,1.8,1.8,0,0,0,.74-.26,1.33,1.33,0,0,0,.47-.55,2.2,2.2,0,0,0,.16-.88,1.63,1.63,0,0,0-.47-1.24,2.23,2.23,0,0,0-1.55-.43h-1.46v3.43Z"/><path class="cls-1" d="M240.69,35.39H236.4v3.19h5.13v2.35h-8V27.85h7.72v2.34H236.4v2.92h4.29Z"/><path class="cls-1" d="M250,35.39h-4.3v3.19h5.14v2.35h-8V27.85h7.71v2.34h-4.83v2.92H250Z"/><path class="cls-1" d="M258.31,31.84c-.21-1.31-.88-2-2-2s-1.62.45-1.62,1.37a1.29,1.29,0,0,0,.17.68,1.6,1.6,0,0,0,.49.48,3.37,3.37,0,0,0,.74.33c.27.09.57.17.88.24l1.47.39a5.43,5.43,0,0,1,1.39.61,3.23,3.23,0,0,1,1,1.08,3.41,3.41,0,0,1,.4,1.77,4.46,4.46,0,0,1-.38,1.89,4,4,0,0,1-1,1.36,4.27,4.27,0,0,1-1.54.81,6.51,6.51,0,0,1-1.9.26,5.86,5.86,0,0,1-3.6-1,4.33,4.33,0,0,1-1.59-3.07l3-.41a5,5,0,0,0,.21.87,2,2,0,0,0,.4.67,1.74,1.74,0,0,0,.66.44,3,3,0,0,0,1,.16,2.11,2.11,0,0,0,1.35-.38,1.36,1.36,0,0,0,.46-1.1,1.27,1.27,0,0,0-.2-.75,1.8,1.8,0,0,0-.55-.51,4.29,4.29,0,0,0-.81-.34c-.31-.1-.64-.19-1-.27s-1-.25-1.45-.4a4.62,4.62,0,0,1-1.32-.64,3.15,3.15,0,0,1-1-1.12,4.11,4.11,0,0,1,0-3.43,3.69,3.69,0,0,1,1-1.23,4.59,4.59,0,0,1,1.51-.78,6.65,6.65,0,0,1,1.95-.28,5.16,5.16,0,0,1,3.19.9,4.12,4.12,0,0,1,1.5,2.79Z"/><path class="cls-1" d="M189.79,55.67h4.76v6.86h-1.82L192.45,61A3.81,3.81,0,0,1,191,62.12a4.29,4.29,0,0,1-1.86.41,4.72,4.72,0,0,1-3.83-1.64A7.36,7.36,0,0,1,184,56.06a10.75,10.75,0,0,1,.43-3.21,6,6,0,0,1,1.2-2.19,4.67,4.67,0,0,1,1.82-1.26,6.67,6.67,0,0,1,2.31-.4,4.45,4.45,0,0,1,3.34,1.22,5,5,0,0,1,1.2,3.56l-2.83.21a5.32,5.32,0,0,0-.17-1.33,2.22,2.22,0,0,0-.41-.83,1.32,1.32,0,0,0-.6-.43,2.15,2.15,0,0,0-.73-.12,2.24,2.24,0,0,0-1,.23,1.92,1.92,0,0,0-.8.76,4.68,4.68,0,0,0-.53,1.44,10.52,10.52,0,0,0-.2,2.22,8.91,8.91,0,0,0,.19,2,3.86,3.86,0,0,0,.53,1.34,2,2,0,0,0,.83.74,2.5,2.5,0,0,0,1.07.22,2.83,2.83,0,0,0,.87-.14,1.91,1.91,0,0,0,.75-.45,2.38,2.38,0,0,0,.53-.79,3.57,3.57,0,0,0,.24-1.13h-2.23Z"/><path class="cls-1" d="M199.06,62.31h-2.87V49.23h4.9a6.56,6.56,0,0,1,2,.28,3.32,3.32,0,0,1,1.34.78,2.9,2.9,0,0,1,.76,1.18,4.55,4.55,0,0,1,.24,1.51,6.5,6.5,0,0,1-.09,1.06,3.31,3.31,0,0,1-1.07,2,3.3,3.3,0,0,1-1.23.69l2.66,5.58h-3.08l-2.39-5.22h-1.19Zm1.14-7.37a5.77,5.77,0,0,0,1-.08,1.86,1.86,0,0,0,.74-.26,1.25,1.25,0,0,0,.46-.55,2,2,0,0,0,.16-.88,1.62,1.62,0,0,0-.46-1.24,2.24,2.24,0,0,0-1.55-.43h-1.46v3.44Z"/><path class="cls-1" d="M211.46,62.53a4.93,4.93,0,0,1-4.17-1.76,7.89,7.89,0,0,1-1.36-4.94,9.58,9.58,0,0,1,.41-2.9,6.32,6.32,0,0,1,1.16-2.15,4.88,4.88,0,0,1,1.82-1.32,5.94,5.94,0,0,1,2.4-.46,4.81,4.81,0,0,1,4.07,1.74,7.83,7.83,0,0,1,1.33,4.87,8.08,8.08,0,0,1-1.42,5.12A5.09,5.09,0,0,1,211.46,62.53Zm.09-2.27a2.08,2.08,0,0,0,1.92-1.08,7.3,7.3,0,0,0,.62-3.51,7.07,7.07,0,0,0-.59-3.32,2,2,0,0,0-1.87-1,2.37,2.37,0,0,0-1.1.25,2.24,2.24,0,0,0-.85.78,4.21,4.21,0,0,0-.53,1.37,9.06,9.06,0,0,0-.19,2,7.16,7.16,0,0,0,.63,3.43A2.08,2.08,0,0,0,211.55,60.26Z"/><path class="cls-1" d="M225.67,49.23h2.85v8.4a4.9,4.9,0,0,1-1.27,3.62,5.38,5.38,0,0,1-3.95,1.28,7.09,7.09,0,0,1-2.37-.35,3.85,3.85,0,0,1-1.57-1,3.7,3.7,0,0,1-.86-1.57,7.94,7.94,0,0,1-.26-2.1V49.23h2.84v7.52a9.62,9.62,0,0,0,.1,1.51,2.92,2.92,0,0,0,.35,1.08,1.56,1.56,0,0,0,.71.66,3.09,3.09,0,0,0,2.29,0,1.55,1.55,0,0,0,.71-.63,2.7,2.7,0,0,0,.34-1.08,11.4,11.4,0,0,0,.09-1.54Z"/><path class="cls-1" d="M233.23,62.31h-2.87V49.23h4.9a6.32,6.32,0,0,1,2,.29,3.34,3.34,0,0,1,1.35.81,3,3,0,0,1,.75,1.25,5,5,0,0,1,.23,1.59,7.19,7.19,0,0,1-.16,1.48,3.84,3.84,0,0,1-.69,1.46,3.77,3.77,0,0,1-1.5,1.12,6.29,6.29,0,0,1-2.6.45h-1.44Zm1.07-6.8a2.88,2.88,0,0,0,1.78-.48,1.92,1.92,0,0,0,.62-1.63,2.1,2.1,0,0,0-.43-1.39,2,2,0,0,0-1.58-.51h-1.46v4Z"/></g></g></svg>