<?xml version="1.0" encoding="utf-8"?>
<!-- Generator: Adobe Illustrator 25.2.1, SVG Export Plug-In . SVG Version: 6.00 Build 0)  -->
<svg version="1.1" id="Layer_1" xmlns="http://www.w3.org/2000/svg" xmlns:xlink="http://www.w3.org/1999/xlink" x="0px" y="0px"
	 viewBox="0 0 210.5 96.6" style="enable-background:new 0 0 210.5 96.6;" xml:space="preserve">
<style type="text/css">
	.st0{fill:#FF0000;}
</style>
<g id="Layer_2_1_">
	<g id="Layer_1-2">
		<path class="st0" d="M128.8,9.9c-1-2.1-2.5-3.9-4.5-5.2c-2-1.3-4.3-2.2-6.7-2.6c-2.8-0.5-5.5-0.7-8.3-0.7H81.6L79,13.6h26.5
			c2.6,0,4.6,0.6,6,1.7c1.4,1.2,2.2,2.9,2.1,4.8c0,1.4-0.2,2.7-0.7,4c-0.5,1.4-1.2,2.6-2.2,3.7c-1.1,1.2-2.4,2.1-3.8,2.7
			c-1.8,0.8-3.7,1.1-5.6,1.1h-0.5c-2.8,0-4.8-0.5-6.2-1.7c-1.4-1.1-2.2-2.9-2.2-4.8c0-1.4,0.2-2.7,0.7-4c0.1-0.2,0.2-0.5,0.3-0.7
			H78.5l-9.8,46.9h17.2l5-24H97c3.1,0,5.3,0.7,6.6,2.2s2,3.7,2,6.6c0,2.2-0.5,15.1-0.5,15.1h16.8c0.2-7.2,0.3-16.9,0.3-19.3
			c0.1-2.6-0.4-5.1-1.5-7.4c-1.2-1.8-3.1-3.1-5.3-3.5v-0.2c5.2-0.8,9-2.8,11.4-6c2.5-3.6,3.8-7.9,3.6-12.3
			C130.5,15.5,130,12.6,128.8,9.9z"/>
		<polygon points="65.8,66.6 68.8,52.5 42.3,52.5 53,1.4 35.9,1.4 22.1,67.2 65.7,67.2 		"/>
		<path d="M143.5,22.6c1.6-2.5,3.7-4.6,6.1-6.1c2.7-1.7,5.8-2.5,9-2.4c1.5,0,2.9,0.2,4.3,0.6c1.3,0.4,2.5,1,3.5,1.9
			c1,0.8,1.8,1.8,2.4,3c0.6,1.3,0.9,2.7,0.8,4.1h16.2c0.2-3.6-0.4-7.2-1.7-10.6c-1.1-2.9-3-5.4-5.4-7.4c-2.5-2-5.5-3.5-8.6-4.3
			c-3.7-1-7.5-1.4-11.3-1.4c-5.1-0.1-10.1,0.8-14.8,2.6c-3.8,1.6-7.3,3.8-10.2,6.6c-0.5,0.5-1,1-1.5,1.6c0.7,2.5,1.1,5,1,7.6
			c0.2,5-1.3,10-4.2,14.1c-1.8,2.3-4.1,4.2-6.8,5.3c0.3,0.4,0.5,0.7,0.8,1.1c1.3,2.2,1.9,5.2,1.9,8.9c0,1.2,0,4.3-0.1,7.9
			c2.7,5.5,7.6,9.6,13.5,11.4c3,0.9,6.2,1.4,9.4,1.4c2.3,0,4.6-0.1,6.9-0.5c1.8-0.3,3.5-0.8,5.1-1.5c1.4-0.6,2.8-1.5,3.9-2.5
			l0.1-0.1l-0.7,3.2h14.6l7.6-36H158l-2.7,12.7h12.1c-1.3,3.9-3.1,6.7-5.5,8.3c-2.4,1.6-5.6,2.3-9.6,2.3c-4.4,0-7.8-1.3-10-3.8
			c-2.2-2.5-3.4-6.1-3.4-10.8c0-3,0.4-6.1,1.1-9C140.7,28,141.9,25.2,143.5,22.6z"/>
		<path class="st0" d="M2.9,94h4.6v2.3H0V83.3h2.9V94z"/>
		<path class="st0" d="M13,96.6c-1.6,0.1-3.1-0.5-4.2-1.8c-1-1.5-1.5-3.2-1.3-4.9c0-1,0.2-1.9,0.4-2.9c0.2-0.8,0.6-1.5,1.2-2.2
			c0.5-0.6,1.1-1,1.8-1.3c0.8-0.3,1.6-0.5,2.4-0.5c1.6-0.1,3.1,0.5,4.1,1.7c1,1.4,1.4,3.1,1.3,4.9c0.1,1.8-0.4,3.6-1.4,5.1
			C16.2,96,14.6,96.7,13,96.6z M13.1,94.3c0.8,0,1.5-0.4,1.9-1.1c0.5-1.1,0.7-2.3,0.6-3.5c0.1-1.1-0.1-2.3-0.6-3.3
			c-0.4-0.7-1.1-1-1.9-1c-0.4,0-0.8,0.1-1.1,0.3c-0.4,0.2-0.6,0.4-0.9,0.8c-0.3,0.4-0.4,0.9-0.5,1.4c-0.1,0.7-0.2,1.3-0.2,2
			c-0.1,1.2,0.1,2.4,0.6,3.4C11.5,93.9,12.3,94.4,13.1,94.3L13.1,94.3z"/>
		<path class="st0" d="M27.2,96.3l-4.5-8.8v8.8H20V83.3h3.4l4.3,8.9v-8.9h2.7v13.1H27.2z"/>
		<path class="st0" d="M32.4,96.3V83.3h3.2c1.1,0,2.1,0.1,3.2,0.4c0.8,0.2,1.5,0.6,2.1,1.2c0.6,0.6,1,1.2,1.2,2
			c0.3,0.9,0.4,1.8,0.4,2.7c0,1-0.1,2-0.4,3c-0.2,0.8-0.6,1.5-1.2,2.1c-0.6,0.6-1.3,1-2.1,1.3c-1,0.3-2.1,0.5-3.2,0.4L32.4,96.3z
			 M36,94c0.5,0,1-0.1,1.5-0.2c0.4-0.1,0.8-0.4,1.1-0.7c0.3-0.4,0.6-0.8,0.7-1.3c0.2-0.7,0.2-1.3,0.2-2c0-0.7-0.1-1.3-0.2-1.9
			c-0.1-0.5-0.3-0.9-0.6-1.3c-0.3-0.3-0.7-0.6-1.1-0.7c-0.5-0.2-1-0.2-1.6-0.2h-0.7V94H36z"/>
		<path class="st0" d="M48.6,96.6c-1.6,0.1-3.1-0.5-4.2-1.8c-1-1.4-1.5-3.2-1.4-4.9c0-1,0.1-2,0.4-2.9c0.2-0.8,0.6-1.5,1.2-2.2
			c0.5-0.6,1.1-1,1.8-1.3c0.8-0.3,1.6-0.5,2.4-0.5c1.6-0.1,3.1,0.5,4.1,1.7c1,1.4,1.4,3.1,1.3,4.9c0.1,1.8-0.4,3.6-1.4,5.1
			C51.8,96,50.2,96.7,48.6,96.6z M48.7,94.3c0.8,0,1.5-0.4,1.9-1.1c0.5-1.1,0.7-2.3,0.6-3.5c0.1-1.1-0.1-2.3-0.6-3.3
			c-0.4-0.7-1.1-1.1-1.9-1c-0.4,0-0.8,0.1-1.1,0.3c-0.3,0.2-0.6,0.4-0.8,0.8c-0.3,0.4-0.4,0.9-0.5,1.4c-0.1,0.7-0.2,1.3-0.2,2
			c-0.1,1.2,0.1,2.4,0.6,3.4C47.1,93.9,47.9,94.4,48.7,94.3z"/>
		<path class="st0" d="M62.7,96.3l-4.5-8.8v8.8h-2.7V83.3h3.4l4.3,8.9v-8.9h2.7v13.1H62.7z"/>
		<path class="st0" d="M75.7,96.3h-2.9V83.3h4.9c0.7,0,1.4,0.1,2,0.3c0.5,0.2,1,0.4,1.3,0.8c0.3,0.3,0.6,0.7,0.8,1.2
			c0.2,0.5,0.3,1,0.3,1.5c0,0.4,0,0.7-0.1,1.1c-0.1,0.3-0.2,0.7-0.3,1c-0.2,0.4-0.4,0.7-0.7,0.9c-0.4,0.3-0.8,0.6-1.2,0.7l2.7,5.6
			h-3.1l-2.4-5.2h-1.2V96.3z M76.8,89c0.3,0,0.7,0,1-0.1c0.3,0,0.5-0.1,0.7-0.3c0.2-0.1,0.4-0.3,0.5-0.6c0.1-0.3,0.2-0.6,0.2-0.9
			c0-0.5-0.2-0.9-0.5-1.2c-0.4-0.3-1-0.5-1.6-0.4h-1.5V89H76.8z"/>
		<path class="st0" d="M90.7,90.8h-4.3V94h5.1v2.3h-8V83.3h7.7v2.3h-4.8v2.9h4.3V90.8z"/>
		<path class="st0" d="M99.9,91.2h-4.2v5.2h-2.9V83.3h7.7v2.3h-4.8v3.3h4.2V91.2z"/>
		<path class="st0" d="M108.8,90.8h-4.3V94h5.1v2.3h-8V83.3h7.7v2.3h-4.8v2.9h4.3L108.8,90.8z"/>
		<path class="st0" d="M113.8,96.3H111V83.3h4.9c0.7,0,1.4,0.1,2,0.3c0.5,0.2,1,0.4,1.3,0.8c0.3,0.3,0.6,0.7,0.8,1.2
			c0.2,0.5,0.2,1,0.2,1.5c0,0.4,0,0.7-0.1,1.1c-0.1,0.3-0.2,0.7-0.3,1c-0.2,0.4-0.4,0.7-0.7,0.9c-0.4,0.3-0.8,0.6-1.2,0.7l2.7,5.6
			h-3.1l-2.4-5.2h-1.2L113.8,96.3z M115,89c0.3,0,0.7,0,1-0.1c0.3,0,0.5-0.1,0.7-0.3c0.2-0.1,0.4-0.3,0.5-0.6
			c0.1-0.3,0.2-0.6,0.2-0.9c0-0.5-0.1-0.9-0.5-1.2c-0.4-0.3-1-0.5-1.6-0.4h-1.5V89H115z"/>
		<path class="st0" d="M128.9,90.8h-4.3V94h5.1v2.3h-8V83.3h7.7v2.3h-4.8v2.9h4.3L128.9,90.8z"/>
		<path class="st0" d="M138.2,90.8h-4.3V94h5.1v2.3h-8V83.3h7.7v2.3h-4.8v2.9h4.3L138.2,90.8z"/>
		<path class="st0" d="M146.5,87.3c-0.2-1.3-0.9-2-2-2s-1.6,0.5-1.6,1.4c0,0.2,0.1,0.5,0.2,0.7c0.1,0.2,0.3,0.4,0.5,0.5
			c0.2,0.1,0.5,0.3,0.7,0.3c0.3,0.1,0.6,0.2,0.9,0.2l1.5,0.4c0.5,0.1,1,0.3,1.4,0.6c0.4,0.3,0.8,0.6,1,1.1c0.3,0.5,0.4,1.2,0.4,1.8
			c0,0.7-0.1,1.3-0.4,1.9c-0.2,0.5-0.6,1-1,1.4c-0.5,0.4-1,0.6-1.5,0.8c-0.6,0.2-1.3,0.3-1.9,0.3c-1.3,0.1-2.5-0.3-3.6-1
			c-0.9-0.8-1.5-1.9-1.6-3.1l3-0.4c0,0.3,0.1,0.6,0.2,0.9c0.1,0.3,0.2,0.5,0.4,0.7c0.2,0.2,0.4,0.3,0.7,0.4c0.3,0.1,0.7,0.2,1,0.2
			c0.5,0,1-0.1,1.4-0.4c0.3-0.3,0.5-0.7,0.5-1.1c0-0.3-0.1-0.5-0.2-0.8c-0.1-0.2-0.3-0.4-0.6-0.5c-0.3-0.2-0.5-0.3-0.8-0.3
			c-0.3-0.1-0.6-0.2-1-0.3s-0.9-0.3-1.4-0.4c-0.5-0.1-0.9-0.4-1.3-0.6c-0.4-0.3-0.8-0.7-1-1.1c-0.3-0.6-0.4-1.2-0.4-1.8
			c0-0.6,0.1-1.1,0.4-1.6c0.2-0.5,0.6-0.9,1-1.2c0.5-0.4,1-0.6,1.5-0.8c0.6-0.2,1.3-0.3,2-0.3c1.1-0.1,2.3,0.3,3.2,0.9
			c0.8,0.7,1.4,1.7,1.5,2.8L146.5,87.3z"/>
		<path class="st0" d="M160.7,89.7h4.8v6.9h-1.8l-0.3-1.6c-0.4,0.5-0.9,0.9-1.4,1.1c-0.6,0.3-1.2,0.4-1.9,0.4
			c-1.5,0.1-2.9-0.5-3.8-1.6c-1-1.4-1.5-3.1-1.4-4.8c0-1.1,0.1-2.2,0.4-3.2c0.2-0.8,0.6-1.6,1.2-2.2c0.5-0.6,1.1-1,1.8-1.3
			c0.7-0.3,1.5-0.4,2.3-0.4c1.2-0.1,2.4,0.4,3.3,1.2c0.8,1,1.3,2.3,1.2,3.6l-2.8,0.2c0-0.4-0.1-0.9-0.2-1.3
			c-0.1-0.3-0.2-0.6-0.4-0.8c-0.2-0.2-0.4-0.3-0.6-0.4c-0.2-0.1-0.5-0.1-0.7-0.1c-0.3,0-0.7,0.1-1,0.2c-0.3,0.2-0.6,0.4-0.8,0.8
			c-0.3,0.4-0.4,0.9-0.5,1.4c-0.1,0.7-0.2,1.5-0.2,2.2c0,0.7,0.1,1.3,0.2,2c0.1,0.5,0.3,0.9,0.5,1.3c0.2,0.3,0.5,0.6,0.8,0.7
			c0.3,0.2,0.7,0.2,1.1,0.2c0.3,0,0.6,0,0.9-0.1c0.3-0.1,0.5-0.2,0.8-0.4c0.2-0.2,0.4-0.5,0.5-0.8c0.1-0.4,0.2-0.7,0.2-1.1h-2.2
			L160.7,89.7z"/>
		<path class="st0" d="M169.9,96.3h-2.9V83.3h4.9c0.7,0,1.4,0.1,2,0.3c0.5,0.2,1,0.4,1.3,0.8c0.3,0.3,0.6,0.7,0.8,1.2
			c0.2,0.5,0.2,1,0.2,1.5c0,0.4,0,0.7-0.1,1.1c-0.1,0.3-0.2,0.7-0.4,1c-0.2,0.4-0.4,0.7-0.7,0.9c-0.4,0.3-0.8,0.6-1.2,0.7l2.7,5.6
			h-3.1l-2.4-5.2h-1.2L169.9,96.3z M171.1,89c0.3,0,0.7,0,1-0.1c0.3,0,0.5-0.1,0.7-0.3c0.2-0.1,0.4-0.3,0.5-0.6
			c0.1-0.3,0.2-0.6,0.2-0.9c0-0.5-0.1-0.9-0.4-1.2c-0.4-0.3-1-0.5-1.6-0.4H170V89H171.1z"/>
		<path class="st0" d="M182.3,96.6c-1.6,0.1-3.1-0.5-4.2-1.8c-1-1.4-1.5-3.2-1.4-4.9c0-1,0.1-2,0.4-2.9c0.2-0.8,0.6-1.5,1.2-2.2
			c0.5-0.6,1.1-1,1.8-1.3c0.8-0.3,1.6-0.5,2.4-0.5c1.6-0.1,3.1,0.5,4.1,1.7c1,1.4,1.4,3.1,1.3,4.9c0.1,1.8-0.4,3.6-1.4,5.1
			C185.5,96,184,96.7,182.3,96.6z M182.4,94.3c0.8,0,1.5-0.4,1.9-1.1c0.5-1.1,0.7-2.3,0.6-3.5c0.1-1.1-0.1-2.3-0.6-3.3
			c-0.4-0.7-1.1-1.1-1.9-1c-0.4,0-0.8,0.1-1.1,0.3c-0.3,0.2-0.6,0.4-0.9,0.8c-0.3,0.4-0.4,0.9-0.5,1.4c-0.1,0.7-0.2,1.3-0.2,2
			c-0.1,1.2,0.1,2.4,0.6,3.4C180.9,93.9,181.6,94.3,182.4,94.3z"/>
		<path class="st0" d="M196.6,83.3h2.9v8.4c0.1,1.3-0.4,2.6-1.3,3.6c-1.1,0.9-2.5,1.4-3.9,1.3c-0.8,0-1.6-0.1-2.4-0.3
			c-0.6-0.2-1.1-0.5-1.6-1c-0.4-0.4-0.7-1-0.9-1.6c-0.2-0.7-0.3-1.4-0.3-2.1v-8.3h2.9v7.5c0,0.5,0,1,0.1,1.5
			c0.1,0.4,0.2,0.8,0.4,1.1c0.2,0.3,0.4,0.5,0.7,0.7c0.7,0.3,1.6,0.3,2.3,0c0.3-0.1,0.5-0.4,0.7-0.6c0.2-0.3,0.3-0.7,0.3-1.1
			c0.1-0.5,0.1-1,0.1-1.5L196.6,83.3z"/>
		<path class="st0" d="M204.1,96.3h-2.9V83.3h4.9c0.7,0,1.4,0.1,2,0.3c0.5,0.2,1,0.4,1.4,0.8c0.3,0.3,0.6,0.8,0.8,1.3
			c0.2,0.5,0.2,1.1,0.2,1.6c0,0.5-0.1,1-0.2,1.5c-0.1,0.5-0.3,1-0.7,1.5c-0.4,0.5-0.9,0.9-1.5,1.1c-0.8,0.3-1.7,0.5-2.6,0.4h-1.4
			L204.1,96.3z M205.2,89.5c0.6,0,1.3-0.1,1.8-0.5c0.5-0.4,0.7-1,0.6-1.6c0-0.5-0.1-1-0.4-1.4c-0.4-0.4-1-0.6-1.6-0.5h-1.5v4
			L205.2,89.5z"/>
	</g>
</g>
</svg>
