<?xml version="1.0" encoding="utf-8"?>
<!-- Generator: Adobe Illustrator 25.2.1, SVG Export Plug-In . SVG Version: 6.00 Build 0)  -->
<svg version="1.1" id="Layer_1" xmlns="http://www.w3.org/2000/svg" xmlns:xlink="http://www.w3.org/1999/xlink" x="0px" y="0px"
	 viewBox="0 0 261.3 68.6" style="enable-background:new 0 0 261.3 68.6;" xml:space="preserve">
<style type="text/css">
	.st0{fill:#FFFFFF;}
</style>
<g id="Layer_2_1_">
	<g id="Layer_1-2">
		<path class="st0" d="M106.7,9.9c-1-2.1-2.5-3.9-4.5-5.2c-2-1.3-4.3-2.2-6.7-2.6c-2.8-0.5-5.5-0.7-8.3-0.7H59.4l-2.6,12.2h26.5
			c2.6,0,4.6,0.6,6,1.7c1.4,1.2,2.2,3,2.1,4.8c0,1.4-0.2,2.7-0.7,4c-0.5,1.4-1.2,2.6-2.2,3.7c-1.1,1.2-2.4,2.1-3.8,2.7
			c-1.8,0.8-3.7,1.1-5.6,1.1h-0.5c-2.8,0-4.8-0.5-6.2-1.7c-1.4-1.2-2.2-2.9-2.1-4.8c0-1.4,0.3-2.7,0.7-4c0.1-0.2,0.2-0.5,0.3-0.7
			H56.4l-9.8,46.9h17.2l5-24h6.1c3.1,0,5.3,0.7,6.6,2.2s2,3.7,2,6.6c0,2.2-0.5,15.1-0.5,15.1h16.8c0.2-7.2,0.3-16.9,0.3-19.3
			c0.1-2.6-0.4-5.1-1.5-7.4c-1.2-1.8-3.1-3.1-5.2-3.5v-0.2c5.2-0.8,9-2.8,11.4-6c2.5-3.6,3.8-7.9,3.6-12.3
			C108.4,15.5,107.9,12.6,106.7,9.9z"/>
		<polygon points="43.7,66.6 46.6,52.5 20.2,52.5 30.9,1.4 13.7,1.4 0,67.2 43.5,67.2 		"/>
		<path d="M121.4,22.6c1.6-2.5,3.7-4.6,6.1-6.1c2.7-1.7,5.8-2.5,9-2.4c1.5,0,2.9,0.2,4.3,0.6c1.3,0.4,2.5,1,3.5,1.9
			c1,0.8,1.8,1.9,2.4,3c0.6,1.3,0.9,2.7,0.8,4.1h16.2c0.2-3.6-0.4-7.2-1.7-10.6c-1.1-2.9-3-5.4-5.4-7.4c-2.5-2-5.5-3.5-8.6-4.3
			c-3.7-1-7.4-1.5-11.2-1.4c-5-0.1-10.1,0.8-14.8,2.6c-3.8,1.6-7.3,3.8-10.2,6.6c-0.5,0.5-1,1-1.5,1.6c0.7,2.5,1.1,5,1,7.6
			c0.2,5-1.3,10-4.2,14.1c-1.8,2.3-4.1,4.2-6.8,5.3c0.3,0.4,0.5,0.7,0.8,1.1c1.3,2.2,1.9,5.2,1.9,8.9c0,1.2,0,4.3-0.1,7.9
			c2.7,5.5,7.6,9.6,13.4,11.4c3,0.9,6.2,1.4,9.4,1.4c2.3,0,4.6-0.1,6.9-0.5c1.8-0.3,3.5-0.8,5.1-1.5c1.4-0.6,2.8-1.5,3.9-2.5
			l0.1-0.1l-0.7,3.2h14.6l7.7-36h-27.4l-2.7,12.7h12.1c-1.3,3.9-3.1,6.7-5.5,8.3c-2.4,1.6-5.6,2.3-9.6,2.3c-4.4,0-7.8-1.3-10-3.8
			c-2.2-2.5-3.4-6.1-3.4-10.8c0-3,0.4-6.1,1.1-9C118.6,28,119.7,25.2,121.4,22.6z"/>
		<path class="st0" d="M187.6,17.2h4.6v2.4h-7.5V6.5h2.9V17.2z"/>
		<path class="st0" d="M197.7,19.8c-1.6,0.1-3.1-0.5-4.2-1.8c-1-1.5-1.5-3.2-1.4-4.9c0-1,0.1-2,0.4-2.9c0.2-0.8,0.6-1.5,1.2-2.2
			c0.5-0.6,1.1-1,1.8-1.3c0.8-0.3,1.6-0.5,2.4-0.4c1.5-0.1,3,0.6,4,1.8c1,1.4,1.4,3.1,1.3,4.9c0.1,1.8-0.4,3.6-1.4,5.1
			C200.9,19.2,199.3,19.9,197.7,19.8z M197.8,17.5c0.8,0,1.5-0.4,1.9-1.1c0.5-1.1,0.7-2.3,0.6-3.5c0.1-1.1-0.1-2.3-0.6-3.3
			c-0.4-0.7-1.1-1-1.9-1c-0.4,0-0.8,0.1-1.1,0.3c-0.3,0.2-0.6,0.4-0.8,0.8c-0.3,0.4-0.4,0.9-0.5,1.4c-0.1,0.7-0.2,1.3-0.2,2
			c-0.1,1.2,0.1,2.4,0.6,3.4C196.2,17.1,197,17.5,197.8,17.5z"/>
		<path class="st0" d="M211.9,19.5l-4.5-8.8v8.8h-2.7V6.5h3.3l4.3,8.9V6.5h2.7v13.1H211.9z"/>
		<path class="st0" d="M217.1,19.5V6.5h3.2c1.1,0,2.1,0.1,3.2,0.4c0.8,0.2,1.5,0.6,2.1,1.2c0.6,0.6,1,1.2,1.2,2
			c0.3,0.9,0.4,1.8,0.4,2.7c0,1-0.1,2-0.4,3c-0.2,0.8-0.6,1.5-1.2,2.1c-0.6,0.6-1.3,1-2.1,1.3c-1,0.3-2.1,0.5-3.2,0.4L217.1,19.5z
			 M220.6,17.2c0.5,0,1-0.1,1.5-0.2c0.4-0.1,0.8-0.4,1.1-0.7c0.3-0.4,0.5-0.8,0.7-1.3c0.2-0.7,0.2-1.3,0.2-2c0-0.7-0.1-1.3-0.2-1.9
			c-0.1-0.5-0.3-0.9-0.6-1.3c-0.3-0.3-0.7-0.6-1.1-0.8c-0.5-0.1-1-0.2-1.6-0.2h-0.7v8.4L220.6,17.2z"/>
		<path class="st0" d="M233.3,19.8c-1.6,0.1-3.1-0.5-4.2-1.8c-1-1.4-1.5-3.2-1.4-4.9c0-1,0.1-2,0.4-2.9c0.2-0.8,0.6-1.5,1.2-2.2
			c0.5-0.6,1.1-1,1.8-1.3c0.8-0.3,1.6-0.5,2.4-0.5c1.6-0.1,3.1,0.6,4.1,1.8c1,1.4,1.4,3.1,1.3,4.9c0.1,1.8-0.4,3.6-1.4,5.1
			C236.4,19.2,234.9,19.9,233.3,19.8z M233.3,17.5c0.8,0,1.5-0.4,1.9-1.1c0.5-1.1,0.7-2.3,0.6-3.5c0.1-1.1-0.1-2.3-0.6-3.3
			c-0.4-0.7-1.1-1.1-1.9-1c-0.4,0-0.8,0.1-1.1,0.3c-0.4,0.2-0.6,0.4-0.9,0.8c-0.3,0.4-0.4,0.9-0.5,1.4c-0.1,0.7-0.2,1.3-0.2,2
			c-0.1,1.2,0.1,2.4,0.6,3.4C231.8,17.1,232.5,17.6,233.3,17.5z"/>
		<path class="st0" d="M247.4,19.5l-4.5-8.8v8.8h-2.7V6.5h3.4l4.4,8.9V6.5h2.7v13.1H247.4z"/>
		<path class="st0" d="M187.5,40.9h-2.9V27.9h4.9c0.7,0,1.4,0.1,2,0.3c0.5,0.2,1,0.4,1.4,0.8c0.3,0.3,0.6,0.7,0.8,1.2
			c0.2,0.5,0.2,1,0.2,1.5c0,0.4,0,0.7-0.1,1.1c-0.1,0.4-0.2,0.7-0.4,1.1c-0.2,0.4-0.4,0.7-0.7,0.9c-0.4,0.3-0.8,0.5-1.2,0.7l2.6,5.6
			h-3.1l-2.4-5.2h-1.2L187.5,40.9z M188.7,33.5c0.3,0,0.7,0,1-0.1c0.3,0,0.5-0.1,0.7-0.3c0.2-0.1,0.4-0.3,0.5-0.5
			c0.1-0.3,0.2-0.6,0.2-0.9c0-0.5-0.1-0.9-0.5-1.2c-0.4-0.3-1-0.5-1.6-0.4h-1.5v3.4L188.7,33.5z"/>
		<path class="st0" d="M202.5,35.4h-4.3v3.2h5.1v2.3h-8V27.9h7.7v2.3h-4.8v2.9h4.3L202.5,35.4z"/>
		<path class="st0" d="M211.8,35.7h-4.2v5.2h-2.9V27.9h7.7v2.3h-4.8v3.3h4.2V35.7z"/>
		<path class="st0" d="M220.7,35.4h-4.3v3.2h5.1v2.3h-8V27.9h7.7v2.3h-4.8v2.9h4.3L220.7,35.4z"/>
		<path class="st0" d="M225.7,40.9h-2.9V27.9h4.9c0.7,0,1.4,0.1,2,0.3c0.5,0.1,1,0.4,1.4,0.8c0.3,0.3,0.6,0.7,0.8,1.2
			c0.2,0.5,0.2,1,0.2,1.5c0,0.4,0,0.7-0.1,1.1c-0.1,0.4-0.2,0.7-0.4,1.1c-0.2,0.4-0.4,0.7-0.7,0.9c-0.4,0.3-0.8,0.5-1.2,0.7l2.7,5.6
			h-3.1l-2.4-5.2h-1.2L225.7,40.9z M226.8,33.5c0.3,0,0.7,0,1-0.1c0.3,0,0.5-0.1,0.7-0.3c0.2-0.1,0.4-0.3,0.5-0.5
			c0.1-0.3,0.2-0.6,0.2-0.9c0-0.5-0.1-0.9-0.5-1.2c-0.4-0.3-1-0.5-1.6-0.4h-1.5v3.4L226.8,33.5z"/>
		<path class="st0" d="M240.7,35.4h-4.3v3.2h5.1v2.3h-8V27.9h7.7v2.3h-4.9v2.9h4.3L240.7,35.4z"/>
		<path class="st0" d="M250,35.4h-4.3v3.2h5.1v2.3h-8V27.9h7.7v2.3h-4.8v2.9h4.3V35.4z"/>
		<path class="st0" d="M258.3,31.8c-0.2-1.3-0.9-2-2-2s-1.6,0.5-1.6,1.4c0,0.2,0.1,0.5,0.2,0.7c0.1,0.2,0.3,0.4,0.5,0.5
			c0.2,0.1,0.5,0.3,0.7,0.3c0.3,0.1,0.6,0.2,0.9,0.2l1.5,0.4c0.5,0.1,1,0.3,1.4,0.6c0.4,0.3,0.8,0.6,1,1.1c0.3,0.5,0.4,1.2,0.4,1.8
			c0,0.7-0.1,1.3-0.4,1.9c-0.2,0.5-0.6,1-1,1.4c-0.5,0.4-1,0.6-1.5,0.8c-0.6,0.2-1.3,0.3-1.9,0.3c-1.3,0.1-2.5-0.3-3.6-1
			c-0.9-0.8-1.5-1.9-1.6-3.1l3-0.4c0,0.3,0.1,0.6,0.2,0.9c0.1,0.2,0.2,0.5,0.4,0.7c0.2,0.2,0.4,0.3,0.7,0.4c0.3,0.1,0.7,0.2,1,0.2
			c0.5,0,1-0.1,1.4-0.4c0.3-0.3,0.5-0.7,0.5-1.1c0-0.3-0.1-0.5-0.2-0.8c-0.1-0.2-0.3-0.4-0.5-0.5c-0.3-0.1-0.5-0.3-0.8-0.3
			c-0.3-0.1-0.6-0.2-1-0.3s-1-0.3-1.4-0.4c-0.5-0.1-0.9-0.4-1.3-0.6c-0.4-0.3-0.8-0.7-1-1.1c-0.5-1.1-0.5-2.3,0-3.4
			c0.2-0.5,0.6-0.9,1-1.2c0.5-0.4,1-0.6,1.5-0.8c0.6-0.2,1.3-0.3,2-0.3c1.1-0.1,2.3,0.3,3.2,0.9c0.9,0.7,1.4,1.7,1.5,2.8L258.3,31.8
			z"/>
		<path class="st0" d="M189.8,55.7h4.8v6.9h-1.8l-0.3-1.5c-0.4,0.5-0.9,0.9-1.4,1.1c-0.6,0.3-1.2,0.4-1.9,0.4
			c-1.5,0.1-2.9-0.5-3.8-1.6c-1-1.4-1.5-3.1-1.3-4.8c0-1.1,0.1-2.2,0.4-3.2c0.2-0.8,0.7-1.6,1.2-2.2c0.5-0.6,1.1-1,1.8-1.3
			c0.7-0.3,1.5-0.4,2.3-0.4c1.2-0.1,2.4,0.4,3.3,1.2c0.8,1,1.3,2.3,1.2,3.6l-2.8,0.2c0-0.4-0.1-0.9-0.2-1.3
			c-0.1-0.3-0.2-0.6-0.4-0.8c-0.2-0.2-0.4-0.3-0.6-0.4c-0.2-0.1-0.5-0.1-0.7-0.1c-0.3,0-0.7,0.1-1,0.2c-0.3,0.2-0.6,0.4-0.8,0.8
			c-0.3,0.4-0.4,0.9-0.5,1.4c-0.1,0.7-0.2,1.5-0.2,2.2c0,0.7,0.1,1.3,0.2,2c0.1,0.5,0.3,0.9,0.5,1.3c0.2,0.3,0.5,0.6,0.8,0.7
			c0.3,0.2,0.7,0.2,1.1,0.2c0.3,0,0.6,0,0.9-0.1c0.3-0.1,0.5-0.2,0.8-0.5c0.2-0.2,0.4-0.5,0.5-0.8c0.1-0.4,0.2-0.7,0.2-1.1h-2.2
			L189.8,55.7z"/>
		<path class="st0" d="M199.1,62.3h-2.9V49.2h4.9c0.7,0,1.4,0.1,2,0.3c0.5,0.2,1,0.4,1.3,0.8c0.3,0.3,0.6,0.7,0.8,1.2
			c0.2,0.5,0.2,1,0.2,1.5c0,0.4,0,0.7-0.1,1.1c-0.1,0.8-0.5,1.5-1.1,2c-0.4,0.3-0.8,0.6-1.2,0.7l2.7,5.6h-3.1l-2.4-5.2H199
			L199.1,62.3z M200.2,54.9c0.3,0,0.7,0,1-0.1c0.3,0,0.5-0.1,0.7-0.3c0.2-0.1,0.4-0.3,0.5-0.5c0.1-0.3,0.2-0.6,0.2-0.9
			c0-0.5-0.1-0.9-0.5-1.2c-0.4-0.3-1-0.5-1.6-0.4h-1.5v3.4L200.2,54.9z"/>
		<path class="st0" d="M211.5,62.5c-1.6,0.1-3.1-0.5-4.2-1.8c-1-1.4-1.5-3.2-1.4-4.9c0-1,0.1-2,0.4-2.9c0.2-0.8,0.6-1.5,1.2-2.2
			c0.5-0.6,1.1-1,1.8-1.3c0.8-0.3,1.6-0.5,2.4-0.5c1.6-0.1,3.1,0.5,4.1,1.7c1,1.4,1.4,3.1,1.3,4.9c0.1,1.8-0.4,3.6-1.4,5.1
			C214.7,62,213.1,62.6,211.5,62.5z M211.6,60.3c0.8,0,1.5-0.4,1.9-1.1c0.5-1.1,0.7-2.3,0.6-3.5c0.1-1.1-0.1-2.3-0.6-3.3
			c-0.4-0.7-1.1-1.1-1.9-1c-0.4,0-0.8,0.1-1.1,0.3c-0.3,0.2-0.6,0.5-0.9,0.8c-0.3,0.4-0.4,0.9-0.5,1.4c-0.1,0.7-0.2,1.3-0.2,2
			c-0.1,1.2,0.1,2.4,0.6,3.4C210,59.9,210.7,60.3,211.6,60.3z"/>
		<path class="st0" d="M225.7,49.2h2.9v8.4c0.1,1.3-0.4,2.6-1.3,3.6c-1.1,0.9-2.5,1.4-3.9,1.3c-0.8,0-1.6-0.1-2.4-0.3
			c-0.6-0.2-1.1-0.5-1.6-1c-0.4-0.4-0.7-1-0.9-1.6c-0.2-0.7-0.3-1.4-0.3-2.1v-8.3h2.8v7.5c0,0.5,0,1,0.1,1.5c0,0.4,0.2,0.7,0.4,1.1
			c0.2,0.3,0.4,0.5,0.7,0.7c0.7,0.3,1.6,0.3,2.3,0c0.3-0.1,0.5-0.4,0.7-0.6c0.2-0.3,0.3-0.7,0.3-1.1c0.1-0.5,0.1-1,0.1-1.5
			L225.7,49.2z"/>
		<path class="st0" d="M233.2,62.3h-2.9V49.2h4.9c0.7,0,1.4,0.1,2,0.3c0.5,0.2,1,0.4,1.4,0.8c0.3,0.3,0.6,0.8,0.8,1.3
			c0.2,0.5,0.2,1.1,0.2,1.6c0,0.5-0.1,1-0.2,1.5c-0.1,0.5-0.4,1-0.7,1.5c-0.4,0.5-0.9,0.9-1.5,1.1c-0.8,0.3-1.7,0.5-2.6,0.5h-1.4
			L233.2,62.3z M234.3,55.5c0.6,0,1.3-0.1,1.8-0.5c0.5-0.4,0.7-1,0.6-1.6c0-0.5-0.1-1-0.4-1.4c-0.4-0.4-1-0.6-1.6-0.5h-1.5v4
			L234.3,55.5z"/>
	</g>
</g>
</svg>
